# xmcd
#
# Track frame offsets:
#	150
#	31927
#	53697
#	54777
#	78887
#	80635
#	100145
#	121487
#	145635
#	162397
#	186460
#	192652
#
# Disc length: 2932 seconds
#
# Revision: 1
# Processed by: cddbd v1.5PL3 Copyright (c) Steve Scherf et al.
# Submitted via: CDex 1.50Beta5
#
DISCID=9b0b720c
DTITLE=朝日美穂 - THRILL MARCH
DYEAR=1900
DGENRE=Pop
TTITLE0=春のインディゴ
TTITLE1=さかさまパラシュート(Brazilian Gorila Mix)
TTITLE2=Warren Street
TTITLE3=Eternal Flower(Album Mix)
TTITLE4=Retrogression
TTITLE5=Daisy(Original Mix)
TTITLE6=聖者の行進
TTITLE7=フッカーマン
TTITLE8=待ちぼうけ
TTITLE9=夏の主(Master Of Summer Mix)
TTITLE10=Conversation
TTITLE11=西の空へ
EXTD=
EXTT0=
EXTT1=
EXTT2=
EXTT3=
EXTT4=
EXTT5=
EXTT6=
EXTT7=
EXTT8=
EXTT9=
EXTT10=
EXTT11=
PLAYORDER=
